HIERARCHY
ROOT Pelvis
{
	OFFSET 0.000000 0.000000 0.000000
	CHANNELS 6 Xposition Yposition Zposition Zrotation Yrotation Xrotation 
	JOINT Left_hip
	{
		OFFSET 0.069463 -0.088608 -0.009542
		CHANNELS 3 Zrotation Yrotation Xrotation
		JOINT Left_knee
		{
			OFFSET 0.030639 -0.359740 -0.005288
			CHANNELS 3 Zrotation Yrotation Xrotation
			JOINT Left_ankle
			{
				OFFSET -0.011068 -0.376034 -0.042462
				CHANNELS 3 Zrotation Yrotation Xrotation
				JOINT Left_foot
				{
					OFFSET 0.023192 -0.053321 0.111332
					CHANNELS 3 Zrotation Yrotation Xrotation
					End Site
					{
						OFFSET 0.000000 0.000000 0.000000
					}
				}
			}
		}
	}
	JOINT Right_hip
	{
		OFFSET -0.067438 -0.088025 -0.006263
		CHANNELS 3 Zrotation Yrotation Xrotation
		JOINT Right_knee
		{
			OFFSET -0.035962 -0.366229 -0.008063
			CHANNELS 3 Zrotation Yrotation Xrotation
			JOINT Right_ankle
			{
				OFFSET 0.013608 -0.375719 -0.040481
				CHANNELS 3 Zrotation Yrotation Xrotation
				JOINT Right_foot
				{
					OFFSET -0.021034 -0.045527 0.114617
					CHANNELS 3 Zrotation Yrotation Xrotation
					End Site
					{
						OFFSET 0.000000 0.000000 0.000000
					}
				}
			}
		}
	}
	JOINT Spine1
	{
		OFFSET -0.002610 0.101823 -0.019986
		CHANNELS 3 Zrotation Yrotation Xrotation
		JOINT Spine2
		{
			OFFSET 0.004114 0.128714 -0.000938
			CHANNELS 3 Zrotation Yrotation Xrotation
			JOINT Spine3
			{
				OFFSET 0.002191 0.048470 0.027684
				CHANNELS 3 Zrotation Yrotation Xrotation
				JOINT Neck
				{
					OFFSET -0.002856 0.198873 -0.044022
					CHANNELS 3 Zrotation Yrotation Xrotation
					JOINT Head
					{
						OFFSET 0.002981 0.062960 0.049860
						CHANNELS 3 Zrotation Yrotation Xrotation
						End Site
						{
							OFFSET 0.000000 0.000000 0.000000
						}
					}
				}
				JOINT Left_collar
				{
					OFFSET 0.073708 0.112550 -0.033440
					CHANNELS 3 Zrotation Yrotation Xrotation
					JOINT Left_shoulder
					{
						OFFSET 0.083291 0.030786 -0.008013
						CHANNELS 3 Zrotation Yrotation Xrotation
						JOINT Left_elbow
						{
							OFFSET 0.245601 -0.011792 -0.027873
							CHANNELS 3 Zrotation Yrotation Xrotation
							JOINT Left_wrist
							{
								OFFSET 0.232258 0.008622 -0.000487
								CHANNELS 3 Zrotation Yrotation Xrotation
								JOINT Left_palm
								{
									OFFSET 0.077300 -0.009457 -0.012851
									CHANNELS 3 Zrotation Yrotation Xrotation
									End Site
									{
										OFFSET 0.000000 0.000000 0.000000
									}
								}
							}
						}
					}
				}
				JOINT Right_collar
				{
					OFFSET -0.075339 0.110574 -0.037874
					CHANNELS 3 Zrotation Yrotation Xrotation
					JOINT Right_shoulder
					{
						OFFSET -0.086522 0.031207 -0.009986
						CHANNELS 3 Zrotation Yrotation Xrotation
						JOINT Right_elbow
						{
							OFFSET -0.237313 -0.011478 -0.019859
							CHANNELS 3 Zrotation Yrotation Xrotation
							JOINT Right_wrist
							{
								OFFSET -0.237599 0.007976 -0.003742
								CHANNELS 3 Zrotation Yrotation Xrotation
								JOINT Right_palm
								{
									OFFSET -0.076920 -0.006943 -0.009920
									CHANNELS 3 Zrotation Yrotation Xrotation
									End Site
									{
										OFFSET 0.000000 0.000000 0.000000
									}
								}
							}
						}
					}
				}
			}
		}
	}
}
MOTION
Frames: 14
Frame Time: 0.100000
0.000000 0.000000 0.000000 179.063659 18.643708 -23.560353 3.301131 6.027230 18.238427 1.141847 -9.272819 -1.829374 4.519682 6.429322 -5.476952 -8.777737 8.905820 -3.193698 -4.136905 -6.884932 20.497887 -1.211732 -2.103961 -3.199019 -4.869131 -8.364954 -6.701356 11.195991 -3.872122 8.414446 0.774392 0.593059 4.411290 0.554627 -3.676882 4.919915 -0.049669 -3.146963 -0.203375 0.311103 -8.366876 14.263855 -3.507238 -7.640454 6.431283 -30.580667 4.568732 5.682642 -52.796232 -6.617647 6.760594 2.448316 -16.444474 15.473593 -13.410852 3.612336 -1.620486 -7.861457 -3.482248 -9.386400 31.232618 -0.234031 3.021915 53.170555 3.213022 9.138789 -9.698731 11.511542 -6.543924 7.809421 -3.740760 -3.126933 11.105242 8.236844 -3.613679 
-0.000350 0.001404 0.000223 179.380934 18.506624 -23.551015 3.351193 6.110577 18.305957 1.105630 -9.093074 -1.669812 4.502464 6.581856 -5.513809 -8.781767 8.824615 -3.216324 -4.120741 -6.843794 20.480798 -1.251933 -1.884044 -3.161978 -4.794532 -8.248689 -6.689200 11.156025 -3.811189 8.379283 0.777366 0.573049 4.425630 0.488277 -3.616140 4.788580 -0.138646 -3.120850 -0.255508 0.151909 -8.593582 14.128111 -3.626274 -7.896220 6.568776 -30.584379 4.681399 5.596833 -52.789339 -6.663236 6.735247 2.533667 -16.331389 15.404356 -13.392833 3.555826 -1.590025 -7.786743 -3.442201 -9.233304 31.319989 -0.134451 3.043249 53.137005 3.056188 9.159496 -9.226761 10.698878 -6.315819 7.877380 -3.830934 -2.872778 11.033613 8.209577 -3.587270 
0.000237 0.002139 -0.001323 179.465429 18.247279 -23.682583 3.289190 6.100207 18.410725 1.128154 -9.110770 -1.619592 4.682490 6.797383 -5.537579 -8.933477 8.809880 -3.201871 -4.141908 -6.724916 20.184928 -1.256238 -1.773391 -2.489402 -5.063609 -8.191754 -7.025943 11.531306 -3.928226 8.526700 0.817121 0.527183 4.543237 0.511328 -3.562552 4.806670 -0.191898 -3.114008 -0.300410 -0.020733 -8.825163 14.258229 -3.833578 -8.243468 6.721720 -30.666866 4.605351 5.641003 -52.609365 -6.707976 6.809361 2.463244 -16.379112 15.500310 -13.531496 3.583663 -1.586379 -7.749201 -3.374963 -9.164915 31.526354 -0.015228 3.143378 52.966703 3.011552 9.172669 -8.994868 10.198877 -6.178754 7.985671 -3.941417 -2.668349 10.949488 8.194990 -3.580317 
0.002313 0.003958 -0.007112 179.470159 18.480815 -23.382597 3.445261 6.277902 17.600297 0.782106 -9.032474 -1.249009 5.025333 6.469134 -5.508394 -9.813003 8.639978 -2.962922 -4.204588 -6.918280 19.371677 -1.091008 -2.192963 -2.001426 -5.980880 -7.673278 -7.323648 13.049009 -4.755502 9.295599 0.880183 0.483743 5.433870 0.623438 -3.517133 4.197832 -0.217969 -3.043997 -0.742618 -0.558888 -9.663951 15.618908 -4.401247 -9.342118 7.970490 -30.631999 4.566271 5.806930 -52.068905 -6.758408 7.107278 2.028804 -16.543498 16.357697 -14.186296 3.461229 -1.464841 -7.477545 -3.112741 -8.984098 31.968476 0.329318 3.168370 52.434049 3.597903 8.703567 -8.049990 7.780023 -6.232330 8.389641 -4.136246 -2.415631 10.617064 8.116363 -3.307489 
0.009941 0.007912 -0.037301 179.596374 18.472098 -19.460377 2.347304 5.315892 10.070229 0.247679 -7.112368 1.275932 5.052746 6.085788 -4.458483 -9.926251 8.445223 -2.656354 -3.613457 -6.181054 12.352315 -0.900068 -3.791748 -0.489905 -6.627007 -6.172704 -6.552241 13.741560 -7.107088 9.809598 2.055122 0.346153 10.795886 0.610168 -3.247889 2.614840 0.269666 -2.317576 -1.350819 -0.613041 -11.147669 10.936445 -2.637231 -11.134535 4.277309 -28.742612 2.110854 5.663125 -53.533200 -7.111964 8.836312 1.950081 -19.205494 18.401971 -14.449523 2.034472 -0.894657 -6.485443 -2.393329 -8.967356 29.227689 4.438068 3.314378 52.505965 7.240248 8.004894 -7.639028 5.727235 -6.139765 8.350262 -3.625484 -2.006904 9.132804 7.551331 -3.408836 
0.023637 0.021479 -0.093076 179.865653 19.495999 -12.311074 0.493068 1.350061 -7.089651 -0.505772 -4.085540 12.005315 4.238326 6.403660 -3.387612 -7.143685 9.426273 -4.210599 -2.994649 -3.693698 -3.217798 -1.524630 -5.915487 8.139489 -5.754160 -7.295893 -7.153565 9.747611 -7.487448 9.150722 4.000145 -0.490140 20.588661 0.649283 -3.093601 0.407635 1.120084 -1.805786 -0.922673 0.833509 -11.360701 -1.399953 1.020405 -12.152189 -2.895870 -26.246345 -3.667598 4.626225 -55.407008 -9.023199 10.559916 3.305040 -21.451637 16.075381 -12.624820 0.977406 -0.769793 -5.297062 -1.793252 -9.292752 24.193738 11.032844 2.470327 51.776746 12.418497 7.668976 -10.034344 10.144024 -8.663992 6.218457 -2.092490 -2.632868 6.932991 6.659871 -3.835029 
0.040203 0.054553 -0.146669 179.265530 19.755676 -8.608231 0.461971 -1.085563 -24.083849 -0.406364 -3.393381 27.792562 -0.935517 7.667250 -3.913115 0.469241 10.391335 -8.310459 -2.982543 -1.241977 -20.307923 -2.893228 -5.397585 24.992142 0.178808 -9.683314 -8.409251 1.042754 -6.718988 0.603042 6.630626 -2.421903 36.007481 0.700071 -2.004436 0.051041 3.757492 -0.417826 -0.240080 -0.907394 -13.738465 -10.097571 6.633013 -10.636730 -15.699258 -20.563001 -14.391161 4.332867 -59.879575 -12.835019 13.518140 6.308579 -22.337111 11.651288 -0.013845 -3.008898 -5.945271 -0.526680 -0.983572 -6.533920 13.536187 23.454104 1.811881 47.526140 19.991810 2.818968 -9.505845 5.534606 -17.491247 -8.047750 -1.858515 -1.729725 3.458255 5.888702 -5.742976 
0.053081 0.117878 -0.186793 179.229597 18.742117 -1.947042 3.458504 -3.761562 -45.161915 -2.175964 -0.055385 46.570589 0.947233 9.126989 -7.496589 0.808420 10.891941 -9.545906 -5.502193 -0.160057 -42.508323 -1.533018 -6.370018 46.231906 1.035656 -10.540596 -13.417991 -2.134257 -5.590379 0.631501 7.411766 -3.590306 46.666858 1.398963 0.349101 -2.944081 4.696138 0.778267 -0.177923 -0.799629 -13.766194 -15.489251 6.580052 -11.200111 -16.213065 -20.991250 -18.145410 3.047043 -56.885400 -14.173053 14.247225 7.851528 -25.694881 7.404026 4.796518 -2.595613 -6.616381 -1.063394 -1.452346 -6.677863 12.981539 29.297297 1.841955 33.108551 24.707469 -5.044761 -8.482140 1.431345 -23.362142 -13.183546 -0.976941 3.656171 3.016603 5.783106 -6.950216 
0.056725 0.185607 -0.197944 -179.765619 17.860571 0.908987 5.474706 -5.071207 -58.860480 -3.409116 2.551880 62.208841 3.745452 10.435241 -11.190163 -0.674732 12.844669 -11.870406 -7.971023 -0.143970 -57.198166 -0.951311 -6.325449 63.875516 1.442477 -11.598259 -17.557924 -3.907282 -4.958010 -1.076439 7.426619 -4.749913 53.932570 0.833546 2.141375 -5.132062 4.438529 1.249833 0.579148 -0.408512 -15.362786 -16.758886 6.531375 -11.600323 -15.472400 -21.487686 -18.235269 2.214216 -56.472490 -15.385027 13.160868 10.937078 -27.069893 1.750575 9.321945 -1.246326 -8.552570 -0.564257 -1.548466 -5.345414 11.413336 31.363099 1.112686 26.132101 26.671316 -9.321120 -8.764300 0.960169 -26.590410 -17.745441 -0.248354 7.730913 2.199174 5.799084 -7.084206 
0.059437 0.205176 -0.196128 -179.053524 17.447077 1.569881 5.967361 -5.086811 -61.903153 -3.644543 3.518999 66.193435 4.480437 11.018308 -12.298503 -1.289407 12.774986 -12.368159 -8.598578 -0.345291 -60.585183 -0.569840 -6.327667 68.370503 1.516908 -11.863146 -19.185291 -4.470256 -4.684411 -1.348574 7.815321 -5.240810 56.196884 0.694949 2.588157 -5.727541 4.494329 1.552917 0.561201 -0.563790 -16.132966 -17.461563 6.807490 -11.376426 -15.729622 -22.612290 -19.459788 2.517239 -56.873385 -15.406147 13.468596 10.405748 -25.736517 0.684408 13.577663 -1.130762 -9.066866 -0.817214 -1.860632 -5.014450 11.546945 32.766576 1.847184 22.876483 25.975758 -10.651360 -8.294233 0.842342 -25.985205 -22.344826 1.627548 10.863292 2.412183 6.107004 -7.679543 
0.064580 0.153690 -0.176751 -178.260942 17.371270 0.531491 4.077345 -4.373070 -51.964698 -2.972434 1.962030 55.598705 3.066099 10.255509 -10.446043 -0.630241 11.873858 -11.273118 -7.384318 0.010781 -51.159608 -0.839325 -5.712902 57.856143 1.262706 -11.238672 -17.645301 -3.475451 -4.624777 -0.442179 7.787528 -4.631237 50.519906 0.992159 1.578664 -4.541115 4.263087 1.148822 0.399839 -0.648618 -15.294984 -16.253935 5.623933 -12.210994 -13.956107 -23.153663 -18.165118 3.049716 -58.153884 -14.526221 14.076600 7.979349 -23.365933 5.206743 11.661207 -2.611775 -5.792888 -1.108166 -1.905408 -5.765662 13.960064 30.917685 2.428602 28.471923 25.967601 -6.679501 -8.305763 1.336691 -22.207207 -20.909861 2.229682 11.351891 2.965696 6.240784 -7.508579 
0.069570 0.087716 -0.138328 -177.776071 17.962748 -2.744128 2.071563 -2.695782 -37.142611 -1.745335 -0.074451 41.625898 -0.010209 9.212060 -5.643292 0.777680 9.625667 -10.515637 -4.989701 -0.085604 -34.661679 -1.397112 -4.654369 41.263472 0.121767 -10.780944 -15.777205 -1.380441 -4.780064 1.010660 7.522241 -3.280089 40.659933 1.501706 0.244640 -3.608213 3.938097 0.536432 0.226140 -1.270764 -14.535904 -12.236039 3.569131 -13.071705 -8.971502 -23.433971 -13.764023 3.426371 -59.817568 -12.552447 14.101533 6.377027 -20.513012 7.968324 9.232627 -3.200930 -5.714971 -1.609853 -1.693464 -5.734210 17.507749 26.001362 2.931741 36.854342 24.066190 -0.857687 -7.926630 1.577228 -18.608481 -17.753732 1.550908 8.068677 3.385408 5.980067 -6.292253 
0.072674 0.051615 -0.099873 -178.195365 17.968807 -7.048022 2.833273 -2.279198 -32.369355 -0.973603 0.238048 43.309256 -2.080447 9.314361 -1.864681 0.692295 8.505876 -10.733223 -2.475566 -1.221884 -20.095631 -1.451406 -3.707039 28.166172 -2.559484 -10.177126 -15.197642 2.534585 -6.394577 2.394082 6.960513 -1.295187 35.901342 1.871190 -1.003584 -3.397505 3.865631 0.181935 -0.032639 -1.275353 -14.114795 -9.835015 2.906928 -13.052067 -6.599886 -24.358880 -9.795174 3.357697 -58.689355 -10.415715 12.721928 5.959293 -19.811068 8.914808 7.734000 -3.544565 -6.034204 -1.861125 -1.521176 -5.168658 20.495914 22.204880 2.723385 40.456486 21.980038 1.841592 -7.980742 2.100790 -16.360796 -16.684623 1.090067 5.767949 3.993034 5.923794 -5.105901 
0.070953 0.034228 -0.069680 -178.199655 17.664538 -9.767792 2.868712 -0.941935 -31.375073 -0.143240 2.986395 39.315500 -2.397249 9.518189 -1.860014 0.622801 7.884963 -8.843957 -1.407974 -2.901410 -10.409873 -1.846719 -2.935586 19.707684 -3.232550 -9.141385 -14.908250 4.560915 -7.271400 3.023615 6.818888 0.424499 35.084671 1.342575 -1.818302 -2.562634 3.497333 0.487094 -0.244231 -2.437619 -14.070305 -8.909767 2.826545 -13.368685 -6.644857 -24.828051 -9.546179 3.599949 -57.167836 -9.101645 11.458958 5.830773 -17.802017 8.762747 8.350319 -4.300846 -4.812369 -2.265887 -1.515574 -5.646901 21.478019 21.464084 3.336523 41.515355 20.282778 1.949733 -8.176529 2.300557 -15.831524 -17.544321 1.845823 5.085292 4.944952 6.154554 -5.390298 
